<?xml version="1.0" encoding="UTF-8" standalone="no"?>
<svg width="40px" height="40px" viewBox="0 0 40 40" version="1.1" xmlns="http://www.w3.org/2000/svg" xmlns:xlink="http://www.w3.org/1999/xlink">
    <!-- Generator: Sketch 40.3 (33839) - http://www.bohemiancoding.com/sketch -->
    <title>Combined Shape</title>
    <desc>Created with Sketch.</desc>
    <defs></defs>
    <g id="Page-1" stroke="none" stroke-width="1" fill="none" fill-rule="evenodd">
        <g id="Design" transform="translate(-30.000000, -22.000000)" fill="#FFFFFF">
            <path d="M40.0550828,22 L64.6410162,24.5840857 L66.2593692,32.1978383 L69.7808758,48.7652243 L48.3715504,61.125904 L30,44.5840857 L40.0550828,22 Z M49.24507,42.2396649 L49.24507,49.3206414 L45.332231,49.3206414 L45.332231,30.8671875 L50.3810556,30.8671875 C52.7456003,30.8671875 54.4916346,31.3236808 55.6192111,32.2366812 C56.7467876,33.1496815 57.3105673,34.5359907 57.3105673,36.3956504 C57.3105673,37.0267567 57.2264211,37.5989511 57.0581261,38.1122508 C56.8898311,38.6255505 56.6647399,39.0820439 56.3828458,39.4817445 C56.1009517,39.8814451 55.7769887,40.230652 55.4109471,40.5293756 C55.0449055,40.8280992 54.6599365,41.0784343 54.2560285,41.2803883 C55.1900657,42.7782137 56.0273207,44.1161388 56.7678187,45.2942038 C57.0875792,45.7990888 57.3968166,46.2913443 57.6955402,46.770985 C57.9942638,47.2506257 58.2614281,47.6797715 58.4970411,48.0584353 C58.7326541,48.437099 58.9261905,48.7400255 59.077656,48.9672237 L59.292231,49.3206414 L54.9502418,49.3206414 L50.9490483,42.2396649 L49.24507,42.2396649 Z" id="Combined-Shape"></path>
        </g>
    </g>
</svg>